<?xml version="1.0" encoding="UTF-8" standalone="no"?>
<svg xmlns="http://www.w3.org/2000/svg" xmlns:xlink="http://www.w3.org/1999/xlink" height="120" width="410">
<defs>
<circle id="o" r="0.72"/>
</defs>
<g fill="#000" transform="scale(10)translate(2 1)">
<use xlink:href="#o" x="0" y="2"/>
<use xlink:href="#o" x="0" y="3"/>
<use xlink:href="#o" x="0" y="4"/>
<use xlink:href="#o" x="0" y="5"/>
<use xlink:href="#o" x="0" y="6"/>
<use xlink:href="#o" x="0" y="7"/>
<use xlink:href="#o" x="0" y="8"/>
<use xlink:href="#o" x="1" y="2"/>
<use xlink:href="#o" x="1" y="3"/>
<use xlink:href="#o" x="1" y="4"/>
<use xlink:href="#o" x="1" y="5"/>
<use xlink:href="#o" x="1" y="6"/>
<use xlink:href="#o" x="1" y="7"/>
<use xlink:href="#o" x="1" y="8"/>
<use xlink:href="#o" x="1" y="9"/>
<use xlink:href="#o" x="2" y="2"/>
<use xlink:href="#o" x="2" y="3"/>
<use xlink:href="#o" x="2" y="4"/>
<use xlink:href="#o" x="2" y="5"/>
<use xlink:href="#o" x="2" y="6"/>
<use xlink:href="#o" x="2" y="7"/>
<use xlink:href="#o" x="2" y="8"/>
<use xlink:href="#o" x="2" y="9"/>
<use xlink:href="#o" x="3" y="2"/>
<use xlink:href="#o" x="3" y="3"/>
<use xlink:href="#o" x="3" y="4"/>
<use xlink:href="#o" x="3" y="5"/>
<use xlink:href="#o" x="3" y="6"/>
<use xlink:href="#o" x="3" y="7"/>
<use xlink:href="#o" x="3" y="8"/>
<use xlink:href="#o" x="3" y="9"/>
<use xlink:href="#o" x="4" y="2"/>
<use xlink:href="#o" x="4" y="3"/>
<use xlink:href="#o" x="4" y="4"/>
<use xlink:href="#o" x="4" y="5"/>
<use xlink:href="#o" x="4" y="6"/>
<use xlink:href="#o" x="4" y="7"/>
<use xlink:href="#o" x="5" y="2"/>
<use xlink:href="#o" x="5" y="3"/>
<use xlink:href="#o" x="5" y="4"/>
<use xlink:href="#o" x="5" y="5"/>
<use xlink:href="#o" x="5" y="6"/>
<use xlink:href="#o" x="5" y="7"/>
<use xlink:href="#o" x="6" y="2"/>
<use xlink:href="#o" x="6" y="3"/>
<use xlink:href="#o" x="6" y="4"/>
<use xlink:href="#o" x="6" y="5"/>
<use xlink:href="#o" x="6" y="6"/>
<use xlink:href="#o" x="6" y="7"/>
<use xlink:href="#o" x="7" y="2"/>
<use xlink:href="#o" x="7" y="3"/>
<use xlink:href="#o" x="7" y="4"/>
<use xlink:href="#o" x="7" y="5"/>
<use xlink:href="#o" x="7" y="6"/>
<use xlink:href="#o" x="7" y="7"/>
<use xlink:href="#o" x="7" y="8"/>
<use xlink:href="#o" x="8" y="2"/>
<use xlink:href="#o" x="8" y="3"/>
<use xlink:href="#o" x="8" y="4"/>
<use xlink:href="#o" x="8" y="5"/>
<use xlink:href="#o" x="8" y="6"/>
<use xlink:href="#o" x="8" y="7"/>
<use xlink:href="#o" x="8" y="8"/>
<use xlink:href="#o" x="8" y="9"/>
<use xlink:href="#o" x="9" y="3"/>
<use xlink:href="#o" x="9" y="4"/>
<use xlink:href="#o" x="9" y="5"/>
<use xlink:href="#o" x="9" y="6"/>
<use xlink:href="#o" x="9" y="7"/>
<use xlink:href="#o" x="9" y="8"/>
<use xlink:href="#o" x="9" y="9"/>
<use xlink:href="#o" x="10" y="2"/>
<use xlink:href="#o" x="10" y="3"/>
<use xlink:href="#o" x="10" y="4"/>
<use xlink:href="#o" x="10" y="5"/>
<use xlink:href="#o" x="10" y="6"/>
<use xlink:href="#o" x="10" y="7"/>
<use xlink:href="#o" x="10" y="8"/>
<use xlink:href="#o" x="10" y="9"/>
<use xlink:href="#o" x="11" y="2"/>
<use xlink:href="#o" x="11" y="3"/>
<use xlink:href="#o" x="11" y="4"/>
<use xlink:href="#o" x="11" y="5"/>
<use xlink:href="#o" x="11" y="6"/>
<use xlink:href="#o" x="11" y="7"/>
<use xlink:href="#o" x="11" y="8"/>
<use xlink:href="#o" x="11" y="9"/>
<use xlink:href="#o" x="12" y="2"/>
<use xlink:href="#o" x="12" y="3"/>
<use xlink:href="#o" x="12" y="4"/>
<use xlink:href="#o" x="12" y="5"/>
<use xlink:href="#o" x="12" y="6"/>
<use xlink:href="#o" x="12" y="7"/>
<use xlink:href="#o" x="12" y="8"/>
<use xlink:href="#o" x="12" y="9"/>
<use xlink:href="#o" x="13" y="0"/>
<use xlink:href="#o" x="13" y="1"/>
<use xlink:href="#o" x="13" y="2"/>
<use xlink:href="#o" x="13" y="3"/>
<use xlink:href="#o" x="13" y="4"/>
<use xlink:href="#o" x="13" y="5"/>
<use xlink:href="#o" x="13" y="6"/>
<use xlink:href="#o" x="13" y="7"/>
<use xlink:href="#o" x="13" y="8"/>
<use xlink:href="#o" x="14" y="0"/>
<use xlink:href="#o" x="14" y="1"/>
<use xlink:href="#o" x="14" y="2"/>
<use xlink:href="#o" x="14" y="3"/>
<use xlink:href="#o" x="14" y="4"/>
<use xlink:href="#o" x="14" y="5"/>
<use xlink:href="#o" x="14" y="6"/>
<use xlink:href="#o" x="14" y="7"/>
<use xlink:href="#o" x="14" y="8"/>
<use xlink:href="#o" x="15" y="0"/>
<use xlink:href="#o" x="15" y="1"/>
<use xlink:href="#o" x="15" y="2"/>
<use xlink:href="#o" x="15" y="3"/>
<use xlink:href="#o" x="15" y="4"/>
<use xlink:href="#o" x="15" y="5"/>
<use xlink:href="#o" x="15" y="6"/>
<use xlink:href="#o" x="15" y="7"/>
<use xlink:href="#o" x="15" y="8"/>
<use xlink:href="#o" x="15" y="9"/>
<use xlink:href="#o" x="16" y="1"/>
<use xlink:href="#o" x="16" y="2"/>
<use xlink:href="#o" x="16" y="3"/>
<use xlink:href="#o" x="16" y="4"/>
<use xlink:href="#o" x="16" y="5"/>
<use xlink:href="#o" x="16" y="6"/>
<use xlink:href="#o" x="16" y="7"/>
<use xlink:href="#o" x="16" y="8"/>
<use xlink:href="#o" x="16" y="9"/>
<use xlink:href="#o" x="17" y="3"/>
<use xlink:href="#o" x="17" y="4"/>
<use xlink:href="#o" x="17" y="5"/>
<use xlink:href="#o" x="17" y="6"/>
<use xlink:href="#o" x="17" y="7"/>
<use xlink:href="#o" x="17" y="8"/>
<use xlink:href="#o" x="17" y="9"/>
<use xlink:href="#o" x="18" y="0"/>
<use xlink:href="#o" x="18" y="1"/>
<use xlink:href="#o" x="18" y="2"/>
<use xlink:href="#o" x="18" y="3"/>
<use xlink:href="#o" x="18" y="4"/>
<use xlink:href="#o" x="18" y="5"/>
<use xlink:href="#o" x="18" y="6"/>
<use xlink:href="#o" x="18" y="7"/>
<use xlink:href="#o" x="18" y="8"/>
<use xlink:href="#o" x="18" y="9"/>
<use xlink:href="#o" x="19" y="0"/>
<use xlink:href="#o" x="19" y="1"/>
<use xlink:href="#o" x="19" y="2"/>
<use xlink:href="#o" x="19" y="3"/>
<use xlink:href="#o" x="19" y="4"/>
<use xlink:href="#o" x="19" y="5"/>
<use xlink:href="#o" x="19" y="6"/>
<use xlink:href="#o" x="19" y="7"/>
<use xlink:href="#o" x="19" y="8"/>
<use xlink:href="#o" x="19" y="9"/>
<use xlink:href="#o" x="20" y="0"/>
<use xlink:href="#o" x="20" y="1"/>
<use xlink:href="#o" x="20" y="2"/>
<use xlink:href="#o" x="20" y="3"/>
<use xlink:href="#o" x="20" y="4"/>
<use xlink:href="#o" x="20" y="5"/>
<use xlink:href="#o" x="20" y="6"/>
<use xlink:href="#o" x="20" y="7"/>
<use xlink:href="#o" x="20" y="8"/>
<use xlink:href="#o" x="20" y="9"/>
<use xlink:href="#o" x="21" y="1"/>
<use xlink:href="#o" x="21" y="2"/>
<use xlink:href="#o" x="21" y="3"/>
<use xlink:href="#o" x="21" y="4"/>
<use xlink:href="#o" x="21" y="5"/>
<use xlink:href="#o" x="21" y="6"/>
<use xlink:href="#o" x="21" y="7"/>
<use xlink:href="#o" x="21" y="8"/>
<use xlink:href="#o" x="21" y="9"/>
<use xlink:href="#o" x="22" y="2"/>
<use xlink:href="#o" x="22" y="3"/>
<use xlink:href="#o" x="22" y="4"/>
<use xlink:href="#o" x="22" y="5"/>
<use xlink:href="#o" x="22" y="6"/>
<use xlink:href="#o" x="22" y="7"/>
<use xlink:href="#o" x="22" y="8"/>
<use xlink:href="#o" x="23" y="2"/>
<use xlink:href="#o" x="23" y="3"/>
<use xlink:href="#o" x="23" y="4"/>
<use xlink:href="#o" x="23" y="5"/>
<use xlink:href="#o" x="23" y="6"/>
<use xlink:href="#o" x="23" y="7"/>
<use xlink:href="#o" x="23" y="8"/>
<use xlink:href="#o" x="23" y="9"/>
<use xlink:href="#o" x="24" y="3"/>
<use xlink:href="#o" x="24" y="4"/>
<use xlink:href="#o" x="24" y="5"/>
<use xlink:href="#o" x="24" y="6"/>
<use xlink:href="#o" x="24" y="7"/>
<use xlink:href="#o" x="24" y="8"/>
<use xlink:href="#o" x="24" y="9"/>
<use xlink:href="#o" x="25" y="2"/>
<use xlink:href="#o" x="25" y="3"/>
<use xlink:href="#o" x="25" y="4"/>
<use xlink:href="#o" x="25" y="5"/>
<use xlink:href="#o" x="25" y="6"/>
<use xlink:href="#o" x="25" y="7"/>
<use xlink:href="#o" x="25" y="8"/>
<use xlink:href="#o" x="25" y="9"/>
<use xlink:href="#o" x="26" y="2"/>
<use xlink:href="#o" x="26" y="3"/>
<use xlink:href="#o" x="26" y="4"/>
<use xlink:href="#o" x="26" y="5"/>
<use xlink:href="#o" x="26" y="6"/>
<use xlink:href="#o" x="26" y="7"/>
<use xlink:href="#o" x="26" y="8"/>
<use xlink:href="#o" x="26" y="9"/>
<use xlink:href="#o" x="27" y="2"/>
<use xlink:href="#o" x="27" y="3"/>
<use xlink:href="#o" x="27" y="4"/>
<use xlink:href="#o" x="27" y="5"/>
<use xlink:href="#o" x="27" y="6"/>
<use xlink:href="#o" x="27" y="7"/>
<use xlink:href="#o" x="27" y="8"/>
<use xlink:href="#o" x="27" y="9"/>
<use xlink:href="#o" x="28" y="2"/>
<use xlink:href="#o" x="28" y="3"/>
<use xlink:href="#o" x="28" y="4"/>
<use xlink:href="#o" x="28" y="5"/>
<use xlink:href="#o" x="28" y="6"/>
<use xlink:href="#o" x="28" y="7"/>
<use xlink:href="#o" x="28" y="8"/>
<use xlink:href="#o" x="28" y="9"/>
<use xlink:href="#o" x="29" y="2"/>
<use xlink:href="#o" x="29" y="3"/>
<use xlink:href="#o" x="29" y="4"/>
<use xlink:href="#o" x="29" y="5"/>
<use xlink:href="#o" x="29" y="6"/>
<use xlink:href="#o" x="29" y="7"/>
<use xlink:href="#o" x="29" y="8"/>
<use xlink:href="#o" x="29" y="9"/>
<use xlink:href="#o" x="30" y="2"/>
<use xlink:href="#o" x="30" y="3"/>
<use xlink:href="#o" x="30" y="4"/>
<use xlink:href="#o" x="30" y="5"/>
<use xlink:href="#o" x="30" y="6"/>
<use xlink:href="#o" x="30" y="7"/>
<use xlink:href="#o" x="30" y="8"/>
<use xlink:href="#o" x="30" y="9"/>
<use xlink:href="#o" x="31" y="2"/>
<use xlink:href="#o" x="31" y="3"/>
<use xlink:href="#o" x="31" y="4"/>
<use xlink:href="#o" x="31" y="5"/>
<use xlink:href="#o" x="31" y="6"/>
<use xlink:href="#o" x="31" y="7"/>
<use xlink:href="#o" x="31" y="8"/>
<use xlink:href="#o" x="31" y="9"/>
<use xlink:href="#o" x="32" y="2"/>
<use xlink:href="#o" x="32" y="3"/>
<use xlink:href="#o" x="32" y="4"/>
<use xlink:href="#o" x="32" y="5"/>
<use xlink:href="#o" x="32" y="6"/>
<use xlink:href="#o" x="32" y="7"/>
<use xlink:href="#o" x="32" y="8"/>
<use xlink:href="#o" x="32" y="9"/>
<use xlink:href="#o" x="33" y="2"/>
<use xlink:href="#o" x="33" y="3"/>
<use xlink:href="#o" x="33" y="4"/>
<use xlink:href="#o" x="33" y="5"/>
<use xlink:href="#o" x="33" y="6"/>
<use xlink:href="#o" x="33" y="7"/>
<use xlink:href="#o" x="33" y="8"/>
<use xlink:href="#o" x="33" y="9"/>
<use xlink:href="#o" x="34" y="2"/>
<use xlink:href="#o" x="34" y="3"/>
<use xlink:href="#o" x="34" y="4"/>
<use xlink:href="#o" x="34" y="5"/>
<use xlink:href="#o" x="34" y="6"/>
<use xlink:href="#o" x="34" y="7"/>
<use xlink:href="#o" x="34" y="8"/>
<use xlink:href="#o" x="35" y="2"/>
<use xlink:href="#o" x="35" y="3"/>
<use xlink:href="#o" x="35" y="4"/>
<use xlink:href="#o" x="35" y="5"/>
<use xlink:href="#o" x="35" y="6"/>
<use xlink:href="#o" x="35" y="7"/>
<use xlink:href="#o" x="35" y="8"/>
<use xlink:href="#o" x="35" y="9"/>
<use xlink:href="#o" x="36" y="3"/>
<use xlink:href="#o" x="36" y="4"/>
<use xlink:href="#o" x="36" y="5"/>
<use xlink:href="#o" x="36" y="6"/>
<use xlink:href="#o" x="36" y="7"/>
<use xlink:href="#o" x="36" y="8"/>
<use xlink:href="#o" x="36" y="9"/>
<use xlink:href="#o" x="37" y="4"/>
<use xlink:href="#o" x="37" y="5"/>
<use xlink:href="#o" x="37" y="6"/>
<use xlink:href="#o" x="37" y="7"/>
<use xlink:href="#o" x="37" y="8"/>
<use xlink:href="#o" x="37" y="9"/>
</g>
<g fill="#fff" transform="scale(10)translate(2 1)">
<use xlink:href="#o" x="1" y="3"/>
<use xlink:href="#o" x="1" y="4"/>
<use xlink:href="#o" x="1" y="5"/>
<use xlink:href="#o" x="1" y="6"/>
<use xlink:href="#o" x="1" y="7"/>
<use xlink:href="#o" x="2" y="3"/>
<use xlink:href="#o" x="2" y="5"/>
<use xlink:href="#o" x="3" y="3"/>
<use xlink:href="#o" x="3" y="5"/>
<use xlink:href="#o" x="4" y="3"/>
<use xlink:href="#o" x="4" y="5"/>
<use xlink:href="#o" x="5" y="4"/>
<use xlink:href="#o" x="7" y="3"/>
<use xlink:href="#o" x="7" y="4"/>
<use xlink:href="#o" x="8" y="5"/>
<use xlink:href="#o" x="8" y="7"/>
<use xlink:href="#o" x="9" y="5"/>
<use xlink:href="#o" x="9" y="7"/>
<use xlink:href="#o" x="10" y="5"/>
<use xlink:href="#o" x="10" y="7"/>
<use xlink:href="#o" x="11" y="3"/>
<use xlink:href="#o" x="11" y="4"/>
<use xlink:href="#o" x="11" y="5"/>
<use xlink:href="#o" x="11" y="6"/>
<use xlink:href="#o" x="13" y="3"/>
<use xlink:href="#o" x="14" y="1"/>
<use xlink:href="#o" x="14" y="2"/>
<use xlink:href="#o" x="14" y="3"/>
<use xlink:href="#o" x="14" y="4"/>
<use xlink:href="#o" x="14" y="5"/>
<use xlink:href="#o" x="14" y="6"/>
<use xlink:href="#o" x="15" y="3"/>
<use xlink:href="#o" x="15" y="7"/>
<use xlink:href="#o" x="16" y="7"/>
<use xlink:href="#o" x="17" y="6"/>
<use xlink:href="#o" x="19" y="1"/>
<use xlink:href="#o" x="19" y="2"/>
<use xlink:href="#o" x="19" y="3"/>
<use xlink:href="#o" x="19" y="4"/>
<use xlink:href="#o" x="19" y="5"/>
<use xlink:href="#o" x="19" y="6"/>
<use xlink:href="#o" x="19" y="7"/>
<use xlink:href="#o" x="20" y="4"/>
<use xlink:href="#o" x="21" y="3"/>
<use xlink:href="#o" x="22" y="3"/>
<use xlink:href="#o" x="23" y="4"/>
<use xlink:href="#o" x="23" y="5"/>
<use xlink:href="#o" x="23" y="6"/>
<use xlink:href="#o" x="23" y="7"/>
<use xlink:href="#o" x="25" y="4"/>
<use xlink:href="#o" x="25" y="5"/>
<use xlink:href="#o" x="25" y="6"/>
<use xlink:href="#o" x="26" y="3"/>
<use xlink:href="#o" x="26" y="7"/>
<use xlink:href="#o" x="27" y="3"/>
<use xlink:href="#o" x="27" y="7"/>
<use xlink:href="#o" x="28" y="3"/>
<use xlink:href="#o" x="28" y="7"/>
<use xlink:href="#o" x="29" y="4"/>
<use xlink:href="#o" x="29" y="5"/>
<use xlink:href="#o" x="29" y="6"/>
<use xlink:href="#o" x="31" y="3"/>
<use xlink:href="#o" x="31" y="4"/>
<use xlink:href="#o" x="31" y="5"/>
<use xlink:href="#o" x="31" y="6"/>
<use xlink:href="#o" x="31" y="7"/>
<use xlink:href="#o" x="32" y="4"/>
<use xlink:href="#o" x="33" y="3"/>
<use xlink:href="#o" x="34" y="3"/>
<use xlink:href="#o" x="35" y="4"/>
<use xlink:href="#o" x="35" y="5"/>
<use xlink:href="#o" x="35" y="6"/>
<use xlink:href="#o" x="35" y="7"/>
</g>
</svg>